# xmcd
#
# Track frame offsets:
#	150
#	12380
#	35578
#	58003
#	75393
#	97001
#	119851
#	147513
#	186339
#	205564
#	221928
#	244742
#	261096
#	272344
#
# Disc length: 3794 seconds
# Revision: 0
# Processed by: cddbd v1.5.2PL0 Copyright (c) Steve Scherf et al.
# Submitted via: dBpowerAMP V12.0
#
DISCID=d30ed00e
DTITLE=Various Artist - Musikexpress 35: Ruf
DYEAR=1900
DGENRE=Rock/Pop
TTITLE0=Canned Heat - Canned Heat/Wait and See
TTITLE1=Walter Trout - Walter Trout/Prisoners of a Dream
TTITLE2=Aynsley Lister - Aynsley Lister/Angel 'O' Mine
TTITLE3=Eric Bibb - Eric Bibb/Livin', Lovin' an' Doin'
TTITLE4=Johnny Winter - Jimmy Johnson/The Street You Live on
TTITLE5=Bernard Allison - Bernard Allison/Don't Be Confused
TTITLE6=James Solberg - James Solberg/L.A. Blues
TTITLE7=Luther Allison - Luther Allison/Cherry Red Wine (Watching You)
TTITLE8=Friend 'n Fellow - Friend 'n Fellow/I Gave It All
TTITLE9=Stavin' Chain - Stavin' Chain/El Guapo
TTITLE10=Spooky Tooth - Spooky Tooth/Tears
TTITLE11=James Hunter - James Hunter/It's Easy to Say
TTITLE12=The Paladins - The Paladins/Gone Again
TTITLE13=Kevin Coyne - Kevin Coyne/Sugar Candy Taxi
EXTD=
EXTT0=
EXTT1=
EXTT2=
EXTT3=
EXTT4=
EXTT5=
EXTT6=
EXTT7=
EXTT8=
EXTT9=
EXTT10=
EXTT11=
EXTT12=
EXTT13=
PLAYORDER=
